<?xml version="1.0" encoding="utf-8"?>
<!-- Generator: Adobe Illustrator 16.0.0, SVG Export Plug-In . SVG Version: 6.00 Build 0)  -->
<!DOCTYPE svg PUBLIC "-//W3C//DTD SVG 1.1//EN" "http://www.w3.org/Graphics/SVG/1.1/DTD/svg11.dtd">
<svg version="1.1" id="Layer_1" xmlns="http://www.w3.org/2000/svg" xmlns:xlink="http://www.w3.org/1999/xlink" x="0px" y="0px"
	 width="66px" height="66px" viewBox="0 0 66 66" enable-background="new 0 0 66 66" xml:space="preserve">
<g>
	<g>
		<path fill="#516266" d="M4.898,53.767c-0.505-0.084-0.852-0.561-0.77-1.064l7.949-49.473c0.081-0.504,0.56-0.85,1.064-0.77
			l49.471,7.949c0.505,0.082,0.852,0.561,0.77,1.064l-7.949,49.471c-0.081,0.506-0.56,0.852-1.064,0.771L4.898,53.767z"/>
	</g>
	<g>
		<g>
			<g>
				<g>
					<g>
						<g>
							<path fill="#FFD629" d="M15.628,62.339c-0.47,0.113-0.944-0.18-1.056-0.65L3.661,15.628c-0.112-0.469,0.181-0.943,0.65-1.055
								l46.061-10.91c0.47-0.113,0.945,0.18,1.055,0.65L62.34,50.372c0.111,0.469-0.182,0.943-0.652,1.057L15.628,62.339z"/>
						</g>
						<path fill="#FFC200" d="M49.994,2.069c1.353-0.32,2.705,0.514,3.027,1.865l10.909,46.059c0.322,1.352-0.513,2.707-1.864,3.027
							l-46.061,10.91c-1.352,0.322-2.704-0.514-3.026-1.865"/>
						<g>
							<path fill="#FFFFFF" d="M26.993,30.991c-0.885,0.209-1.604,0.746-2.079,1.441c-0.46-0.34-1.056-0.49-1.656-0.348
								c-0.526,0.125-0.954,0.449-1.227,0.873c-0.388-0.178-0.81-0.279-1.248-0.293c-0.492-1.041-1.659-1.633-2.822-1.355
								c-0.404,0.094-0.755,0.293-1.05,0.549c-0.252-0.639-0.9-1.029-1.582-0.957c-0.021-0.154-0.025-0.307-0.062-0.463
								c-0.194-0.814-0.619-1.512-1.188-2.045c0.456-0.34,0.693-0.928,0.554-1.516c-0.186-0.789-0.976-1.277-1.765-1.09
								c-0.02,0.004-0.037,0.014-0.057,0.02c-0.013-0.082-0.013-0.162-0.031-0.244c-0.482-2.033-2.521-3.291-4.555-2.809
								c-2.034,0.482-3.292,2.521-2.811,4.553c0.271,1.148,1.05,2.035,2.031,2.516c-0.316,0.771-0.416,1.643-0.207,2.52
								c0.346,1.461,1.435,2.539,2.767,2.965c-0.403,0.98-0.519,2.09-0.255,3.201c0.668,2.82,3.497,4.568,6.318,3.898
								c1.773-0.42,3.119-1.693,3.71-3.281c0.525,0.148,1.087,0.184,1.654,0.049c1.497-0.354,2.5-1.676,2.531-3.146
								c0.074-0.01,0.147-0.012,0.22-0.029c0.147-0.035,0.287-0.086,0.42-0.15c0.675,1.504,2.342,2.371,4.007,1.975
								c1.888-0.445,3.054-2.338,2.607-4.227C30.772,31.712,28.881,30.544,26.993,30.991z"/>
							<path fill="#FFFFFF" d="M58.545,27.261l-1.425-6.016c-0.696-0.52-1.521-0.865-2.402-0.955
								c0.788-1.135,1.114-2.584,0.77-4.037c-0.644-2.713-3.361-4.389-6.072-3.746c-2.713,0.643-4.389,3.361-3.746,6.07
								c0.007,0.033,0.017,0.057,0.025,0.088c-2.024,0.674-3.292,2.684-3.041,4.793c-0.247-0.049-0.506-0.053-0.768,0.01
								c-0.818,0.193-1.369,0.92-1.382,1.727c-1.95,0.789-3.095,2.887-2.595,4.996c0.485,2.049,2.35,3.404,4.374,3.326
								c0.519,1.91,2.453,3.082,4.392,2.621c1.252-0.297,2.198-1.201,2.608-2.324c0.77,0.189,1.592,0.207,2.414,0.012
								c1.086-0.256,2.009-0.846,2.69-1.627c0.653,0.881,1.787,1.336,2.923,1.07c1.127-0.27,1.929-1.174,2.127-2.24l-0.523-2.217
								c-0.237-0.309-0.53-0.562-0.865-0.75C58.242,27.81,58.405,27.542,58.545,27.261z"/>
						</g>
						<g>
							<path fill="#FFF5CC" d="M27.262,32.12c-0.887,0.207-1.604,0.742-2.08,1.441c-0.46-0.342-1.055-0.49-1.656-0.348
								c-0.527,0.125-0.953,0.447-1.226,0.873c-0.39-0.178-0.811-0.279-1.25-0.295c-0.493-1.039-1.658-1.631-2.822-1.355
								c-0.405,0.096-0.755,0.293-1.048,0.549c-0.254-0.637-0.9-1.029-1.584-0.955c-0.018-0.152-0.024-0.309-0.062-0.461
								c-0.193-0.816-0.618-1.514-1.188-2.051c0.458-0.338,0.693-0.924,0.555-1.514c-0.188-0.787-0.978-1.275-1.765-1.09
								c-0.021,0.006-0.036,0.016-0.056,0.021c-0.015-0.082-0.015-0.162-0.034-0.244c-0.481-2.033-2.52-3.289-4.552-2.809
								c-2.034,0.482-3.293,2.52-2.811,4.553c0.271,1.148,1.049,2.035,2.031,2.516c-0.319,0.771-0.417,1.645-0.209,2.52
								c0.348,1.461,1.435,2.539,2.769,2.965c-0.404,0.98-0.519,2.092-0.257,3.199c0.668,2.822,3.499,4.568,6.318,3.898
								c1.773-0.42,3.119-1.691,3.711-3.281c0.525,0.148,1.088,0.184,1.653,0.049c1.497-0.355,2.5-1.676,2.534-3.145
								c0.072-0.01,0.145-0.01,0.219-0.029c0.147-0.035,0.286-0.09,0.417-0.152c0.677,1.506,2.343,2.369,4.008,1.977
								c1.888-0.449,3.055-2.34,2.608-4.227C31.04,32.841,29.148,31.673,27.262,32.12z"/>
							<path fill="#FFF5CC" d="M58.812,28.388l-1.425-6.014c-0.695-0.521-1.521-0.865-2.402-0.957
								c0.786-1.137,1.112-2.586,0.769-4.037c-0.641-2.711-3.361-4.389-6.073-3.746c-2.71,0.643-4.387,3.361-3.743,6.074
								c0.004,0.027,0.015,0.055,0.023,0.086c-2.023,0.674-3.292,2.684-3.04,4.791c-0.246-0.047-0.506-0.049-0.767,0.014
								c-0.82,0.193-1.371,0.92-1.385,1.725c-1.947,0.789-3.093,2.889-2.594,4.996c0.485,2.047,2.35,3.404,4.375,3.326
								c0.519,1.908,2.452,3.078,4.392,2.621c1.252-0.299,2.199-1.201,2.608-2.326c0.768,0.191,1.592,0.209,2.414,0.014
								c1.087-0.258,2.008-0.846,2.69-1.627c0.652,0.881,1.789,1.338,2.924,1.068c1.125-0.268,1.929-1.174,2.127-2.24L59.18,29.94
								c-0.234-0.309-0.529-0.562-0.863-0.752C58.509,28.938,58.673,28.671,58.812,28.388z"/>
						</g>
						
							<rect x="10.818" y="34.729" transform="matrix(0.9731 -0.2305 0.2305 0.9731 -8.2613 9.1181)" fill="#00ADDB" width="48.137" height="10.363"/>
						<path fill="#E8E8E8" d="M49.994,2.069L3.934,12.981c-1.35,0.318-2.187,1.674-1.865,3.025l10.911,46.059
							c0.322,1.352,1.675,2.188,3.026,1.865l46.061-10.91c1.352-0.32,2.187-1.676,1.864-3.027L53.021,3.935
							C52.699,2.583,51.347,1.749,49.994,2.069z M50.01,5.429l7.09,29.92L12.517,45.911l-7.09-29.92L50.01,5.429z"/>
						<path fill="#F2F2F2" d="M16.006,63.931l2.772-0.656l13.619-22.072l-19.881,4.709l-7.09-29.92L50.01,5.429l1.236,5.217
							l2.431-3.938l-0.655-2.773c-0.322-1.352-1.675-2.186-3.027-1.865L3.934,12.981c-1.35,0.318-2.187,1.674-1.865,3.025
							l10.911,46.059C13.302,63.417,14.654,64.253,16.006,63.931z"/>
						<g>
							<path fill="#19CBF4" d="M47.272,31.649l-1.237,0.293L33.347,21.288c-0.595-0.496-1.605-0.254-1.916,0.457l-4.82,11.184
								l-2.387-2.004c-0.595-0.498-1.608-0.256-1.916,0.455l-2.972,6.891l-1.289,0.305c-0.658,0.156-1.067,0.816-0.91,1.479
								c0.156,0.658,0.818,1.066,1.477,0.91l1.548-0.365c0.213,0.004,0.421-0.049,0.606-0.145l4.969-1.178
								c0.096,0,0.188,0,0.28-0.021c0.102-0.023,0.199-0.064,0.293-0.113l3.355-0.795c0.105,0.002,0.21-0.006,0.315-0.031
								c0.09-0.02,0.174-0.064,0.258-0.105l15.5-3.672c0.211,0.004,0.417-0.043,0.605-0.145l1.493-0.354
								c0.659-0.158,1.068-0.818,0.912-1.479C48.593,31.903,47.931,31.495,47.272,31.649z"/>
							<path fill="#00ADDB" d="M47.272,31.649l-1.237,0.293L33.347,21.288c-0.595-0.496-1.605-0.254-1.916,0.457l-2.524,13.031
								l-4.683-3.852c-0.595-0.498-1.608-0.256-1.916,0.455l-1.062,6.436l-3.198,0.76c-0.658,0.156-1.067,0.816-0.91,1.479
								c0.156,0.658,0.818,1.066,1.477,0.91l1.548-0.365c0.213,0.004,0.421-0.049,0.606-0.145l4.969-1.178
								c0.096,0,0.188,0,0.28-0.021c0.102-0.023,0.199-0.064,0.293-0.113l3.355-0.795c0.105,0.002,0.21-0.006,0.315-0.031
								c0.09-0.02,0.174-0.064,0.258-0.105l15.5-3.672c0.211,0.004,0.417-0.043,0.605-0.145l1.493-0.354
								c0.659-0.158,1.068-0.818,0.912-1.479C48.593,31.903,47.931,31.495,47.272,31.649z"/>
						</g>
						<circle fill="#EAE4BE" cx="23.228" cy="13.91" r="0.238"/>
						<path fill="#EAE4BE" d="M27.1,14.431c0.069,0.291-0.113,0.586-0.405,0.656c-0.292,0.068-0.586-0.111-0.656-0.404
							c-0.069-0.295,0.111-0.59,0.406-0.658C26.735,13.958,27.029,14.138,27.1,14.431z"/>
						<circle fill="#EAE4BE" cx="29.433" cy="11.565" r="0.136"/>
						<circle fill="#EAE4BE" cx="32.523" cy="16.473" r="0.579"/>
						<circle fill="#EAE4BE" cx="23.477" cy="17.179" r="0.205"/>
						<circle fill="#EAE4BE" cx="27.25" cy="17.582" r="0.443"/>
						<circle fill="#EAE4BE" cx="18.546" cy="15.441" r="0.307"/>
						
							<rect x="12.145" y="40.371" transform="matrix(0.9731 -0.2305 0.2305 0.9731 -8.6102 9.4003)" fill="#E8E8E8" width="47.555" height="2.352"/>
					</g>
				</g>
			</g>
		</g>
	</g>
	<circle fill="#FFFB5F" cx="21.219" cy="22.708" r="3.431"/>
	<g>
		
			<rect x="20.522" y="16.974" transform="matrix(0.7071 -0.7071 0.7071 0.7071 -6.2802 20.18)" fill="#FFFB5F" width="1.395" height="1.393"/>
		
			<rect x="20.522" y="27.025" transform="matrix(0.7071 -0.7071 0.7071 0.7071 -13.3872 23.1238)" fill="#FFFB5F" width="1.395" height="1.393"/>
	</g>
	<g>
		<rect x="24.076" y="18.446" fill="#FFFB5F" width="1.394" height="1.393"/>
		<rect x="16.969" y="25.555" fill="#FFFB5F" width="1.394" height="1.393"/>
	</g>
	<g>
		
			<rect x="25.548" y="22.001" transform="matrix(0.7068 0.7075 -0.7075 0.7068 23.7534 -11.9111)" fill="#FFFB5F" width="1.394" height="1.392"/>
		
			<rect x="15.497" y="22.001" transform="matrix(0.7064 0.7078 -0.7078 0.7064 20.8197 -4.7983)" fill="#FFFB5F" width="1.393" height="1.393"/>
	</g>
	<g>
		<rect x="24.076" y="25.556" fill="#FFFB5F" width="1.393" height="1.393"/>
		<rect x="16.969" y="18.447" fill="#FFFB5F" width="1.393" height="1.395"/>
	</g>
</g>
</svg>
